<svg width="20" height="19" viewBox="0 0 20 19" fill="none" xmlns="http://www.w3.org/2000/svg">
<mask id="mask0_711_1741" style="mask-type:luminance" maskUnits="userSpaceOnUse" x="2" y="1" width="17" height="17">
<path fill-rule="evenodd" clip-rule="evenodd" d="M2.39569 1.41504H18.7385V17.7498H2.39569V1.41504Z" fill="white"/>
</mask>
<g mask="url(#mask0_711_1741)">
<path fill-rule="evenodd" clip-rule="evenodd" d="M11.7366 12.2703C12.6964 12.2703 13.4777 13.0093 13.4777 13.9178V16.2543C13.4777 16.4495 13.6419 16.6059 13.8524 16.6105H15.3719C16.5693 16.6105 17.5427 15.6944 17.5427 14.5688V7.9422C17.5371 7.55481 17.3434 7.19021 17.0109 6.94791L11.7549 2.95405C11.0494 2.42158 10.0624 2.42158 9.35447 2.95557L4.1343 6.94639C3.78911 7.19629 3.59538 7.56089 3.5914 7.95511V14.5688C3.5914 15.6944 4.5648 16.6105 5.76222 16.6105H7.29606C7.5121 16.6105 7.68749 16.4472 7.68749 16.2467C7.68749 16.2026 7.69307 16.1585 7.70264 16.1168V13.9178C7.70264 13.0147 8.47913 12.2763 9.4318 12.2703H11.7366ZM15.3719 17.75H13.838C12.9595 17.7302 12.2818 17.0732 12.2818 16.2543V13.9179C12.2818 13.6376 12.0371 13.4097 11.7365 13.4097H9.43578C9.14161 13.4112 8.89846 13.6399 8.89846 13.9179V16.2467C8.89846 16.3037 8.89049 16.3584 8.87375 16.4101C8.78765 17.162 8.1132 17.75 7.29606 17.75H5.76221C3.9055 17.75 2.39557 16.3227 2.39557 14.5688V7.94988C2.40354 7.19486 2.76867 6.50364 3.39926 6.04865L8.60907 2.06467C9.75626 1.19875 11.3547 1.19875 12.4995 2.06315L17.7468 6.05093C18.363 6.49832 18.7281 7.18802 18.7385 7.93393V14.5688C18.7385 16.3227 17.2286 17.75 15.3719 17.75Z" fill="white"/>
</g>
</svg>
