<svg width="27" height="31" viewBox="0 0 27 31" fill="none" xmlns="http://www.w3.org/2000/svg">
<rect x="0.619385" y="2.63965" width="25.5109" height="25.5109" rx="6.37773" fill="white"/>
<path d="M13.3748 10.4039C15.8599 10.4039 17.9111 12.455 17.9111 14.9401C17.9111 17.4646 15.8599 19.4764 13.3748 19.4764C10.8503 19.4764 8.83859 17.4646 8.83859 14.9401C8.83859 12.455 10.8503 10.4039 13.3748 10.4039ZM13.3748 17.8985C14.9921 17.8985 16.2938 16.5968 16.2938 14.9401C16.2938 13.3229 14.9921 12.0211 13.3748 12.0211C11.7181 12.0211 10.4164 13.3229 10.4164 14.9401C10.4164 16.5968 11.7576 17.8985 13.3748 17.8985ZM19.1339 10.2461C19.1339 10.8378 18.6605 11.3111 18.0689 11.3111C17.4772 11.3111 17.0038 10.8378 17.0038 10.2461C17.0038 9.65441 17.4772 9.18106 18.0689 9.18106C18.6605 9.18106 19.1339 9.65441 19.1339 10.2461ZM22.1318 11.3111C22.2106 12.7706 22.2106 17.1491 22.1318 18.6086C22.0529 20.0286 21.7373 21.2514 20.7117 22.3164C19.6861 23.342 18.4239 23.6576 17.0038 23.7365C15.5443 23.8154 11.1659 23.8154 9.7064 23.7365C8.28636 23.6576 7.06354 23.342 5.99851 22.3164C4.97293 21.2514 4.65736 20.0286 4.57847 18.6086C4.49958 17.1491 4.49958 12.7706 4.57847 11.3111C4.65736 9.89108 4.97293 8.62883 5.99851 7.60324C7.06354 6.57765 8.28636 6.26209 9.7064 6.1832C11.1659 6.10431 15.5443 6.10431 17.0038 6.1832C18.4239 6.26209 19.6861 6.57765 20.7117 7.60324C21.7373 8.62883 22.0529 9.89108 22.1318 11.3111ZM20.2384 20.1469C20.7117 19.003 20.5934 16.2418 20.5934 14.9401C20.5934 13.6779 20.7117 10.9167 20.2384 9.7333C19.9228 8.98384 19.3311 8.35271 18.5817 8.07659C17.3983 7.60324 14.6371 7.72158 13.3748 7.72158C12.0731 7.72158 9.31194 7.60324 8.16802 8.07659C7.37911 8.39215 6.78742 8.98384 6.47186 9.7333C5.99851 10.9167 6.11685 13.6779 6.11685 14.9401C6.11685 16.2418 5.99851 19.003 6.47186 20.1469C6.78742 20.9358 7.37911 21.5275 8.16802 21.8431C9.31194 22.3164 12.0731 22.1981 13.3748 22.1981C14.6371 22.1981 17.3983 22.3164 18.5817 21.8431C19.3311 21.5275 19.9622 20.9358 20.2384 20.1469Z" fill="#8358A5"/>
</svg>
