<svg width="20" height="19" viewBox="0 0 20 19" fill="none" xmlns="http://www.w3.org/2000/svg">
<path fill-rule="evenodd" clip-rule="evenodd" d="M10.5675 7.21985C9.7982 7.21985 9.17239 7.81612 9.17239 8.54987C9.17239 9.28286 9.7982 9.87837 10.5675 9.87837C11.3368 9.87837 11.9626 9.28286 11.9626 8.54987C11.9626 7.81612 11.3368 7.21985 10.5675 7.21985ZM10.5675 11.0173C9.1389 11.0173 7.97656 9.91063 7.97656 8.54947C7.97656 7.18754 9.1389 6.08008 10.5675 6.08008C11.9961 6.08008 13.1585 7.18754 13.1585 8.54947C13.1585 9.91063 11.9961 11.0173 10.5675 11.0173Z" fill="white"/>
<mask id="mask0_711_1748" style="mask-type:luminance" maskUnits="userSpaceOnUse" x="3" y="2" width="15" height="16">
<path fill-rule="evenodd" clip-rule="evenodd" d="M3.99011 2.28125H17.1438V17.093H3.99011V2.28125Z" fill="white"/>
</mask>
<g mask="url(#mask0_711_1748)">
<path fill-rule="evenodd" clip-rule="evenodd" d="M10.5668 3.42112C7.59954 3.42112 5.18557 5.74315 5.18557 8.59612C5.18557 12.2261 9.66911 15.7627 10.5668 15.9511C11.4644 15.762 15.948 12.2254 15.948 8.59612C15.948 5.74315 13.534 3.42112 10.5668 3.42112ZM10.5668 17.093C9.13657 17.093 3.98975 12.8758 3.98975 8.59562C3.98975 5.11372 6.94024 2.28125 10.5668 2.28125C14.1933 2.28125 17.1438 5.11372 17.1438 8.59562C17.1438 12.8758 11.997 17.093 10.5668 17.093Z" fill="white"/>
</g>
</svg>
