<svg width="20" height="20" viewBox="0 0 20 20" fill="none" xmlns="http://www.w3.org/2000/svg">
<path fill-rule="evenodd" clip-rule="evenodd" d="M13.1207 10.5769H3.5214C3.19136 10.5769 2.92349 10.3216 2.92349 10.0072C2.92349 9.69272 3.19136 9.4375 3.5214 9.4375H13.1207C13.4507 9.4375 13.7186 9.69272 13.7186 10.0072C13.7186 10.3216 13.4507 10.5769 13.1207 10.5769Z" fill="white"/>
<path fill-rule="evenodd" clip-rule="evenodd" d="M10.7869 12.7909C10.6338 12.7909 10.4799 12.7355 10.3635 12.6231C10.13 12.3997 10.1316 12.0397 10.3651 11.8179L12.2737 10.0071L10.3651 8.19549C10.1316 7.97369 10.13 7.61365 10.3635 7.39033C10.5971 7.16702 10.975 7.16702 11.2086 7.38881L13.5436 9.60374C13.6568 9.71008 13.7198 9.85592 13.7198 10.0071C13.7198 10.1582 13.6568 10.3041 13.5436 10.4104L11.2086 12.6246C11.0922 12.7355 10.9391 12.7909 10.7869 12.7909Z" fill="white"/>
<path fill-rule="evenodd" clip-rule="evenodd" d="M14.118 17.6027H10.2236C8.27919 17.6027 6.69672 16.0949 6.69672 14.2416V13.526C6.69672 13.2116 6.96458 12.9564 7.29463 12.9564C7.62468 12.9564 7.89254 13.2116 7.89254 13.526V14.2416C7.89254 15.466 8.93849 16.4633 10.2236 16.4633H14.118C15.4087 16.4633 16.4586 15.4637 16.4586 14.2332V5.77226C16.4586 4.54783 15.4119 3.5505 14.1268 3.5505H10.2324C8.94247 3.5505 7.89254 4.5501 7.89254 5.7791V6.48779C7.89254 6.80225 7.62468 7.05747 7.29463 7.05747C6.96458 7.05747 6.69672 6.80225 6.69672 6.48779V5.7791C6.69672 3.92193 8.28318 2.41113 10.2324 2.41113H14.1268C16.0712 2.41113 17.6545 3.91889 17.6545 5.77226V14.2332C17.6545 16.0911 16.0672 17.6027 14.118 17.6027Z" fill="white"/>
</svg>
