<svg width="18" height="21" viewBox="0 0 18 21" fill="none" xmlns="http://www.w3.org/2000/svg">
<path d="M11.8379 3.60446C12.226 3.15721 12.5219 2.63772 12.7086 2.0758C12.8953 1.51389 12.9692 0.920624 12.926 0.330078C11.7347 0.426243 10.6288 0.986551 9.84663 1.89028C9.47208 2.32342 9.18824 2.82731 9.01193 3.37211C8.83562 3.91692 8.77042 4.49156 8.82018 5.06202C9.4013 5.06686 9.97574 4.93792 10.499 4.68517C11.0223 4.43242 11.4805 4.06264 11.8379 3.60446ZM14.4246 11.2413C14.4315 10.4547 14.6387 9.68292 15.0266 8.99867C15.4145 8.31442 15.9704 7.74029 16.6417 7.33048C16.218 6.71998 15.6579 6.2166 15.0058 5.86026C14.3537 5.50392 13.6276 5.30442 12.8849 5.27757C11.2837 5.11334 9.80557 6.21164 8.95362 6.21164C8.10167 6.21164 6.90072 5.2981 5.56633 5.31863C4.69398 5.34737 3.84397 5.60171 3.0992 6.05684C2.35443 6.51198 1.74034 7.15237 1.31682 7.91555C-0.489731 11.0565 0.85492 15.7268 2.66147 18.2622C3.48263 19.5042 4.50909 20.9104 5.864 20.8591C7.21892 20.8078 7.66029 20.0174 9.23076 20.0174C10.8012 20.0174 11.2837 20.8591 12.6181 20.8283C13.9524 20.7975 14.8968 19.5555 15.759 18.3135C16.3698 17.4118 16.8469 16.4265 17.1755 15.3881C16.362 15.0412 15.668 14.4636 15.1791 13.7266C14.6902 12.9896 14.4279 12.1256 14.4246 11.2413Z" fill="white"/>
</svg>
