<svg width="27" height="27" viewBox="0 0 27 27" fill="none" xmlns="http://www.w3.org/2000/svg">
<mask id="mask0_1951_992" style="mask-type:luminance" maskUnits="userSpaceOnUse" x="0" y="0" width="27" height="27">
<path fill-rule="evenodd" clip-rule="evenodd" d="M0.61731 0.803223H26.3422V26.528H0.61731V0.803223Z" fill="white"/>
</mask>
<g mask="url(#mask0_1951_992)">
<path fill-rule="evenodd" clip-rule="evenodd" d="M3.57771 4.64328C3.58022 4.64328 3.51748 4.70853 3.43842 4.78633C3.13473 5.08123 2.50603 5.69488 2.49975 6.97864C2.48972 8.7744 3.67057 12.1087 9.35652 17.7934C15.0161 23.4504 18.3454 24.6451 20.1449 24.6451H20.1712C21.455 24.6388 22.0674 24.0089 22.3635 23.7064C22.4539 23.6136 22.5267 23.5458 22.5781 23.5031C23.828 22.2457 24.468 21.3096 24.4617 20.7097C24.453 20.0974 23.6912 19.3733 22.6384 18.3719C22.3033 18.0531 21.9394 17.7068 21.5554 17.3228C20.5603 16.3301 20.0671 16.4996 18.9828 16.881C17.4832 17.4068 15.4252 18.1221 12.2277 14.9234C9.02523 11.7234 9.74177 9.66789 10.2663 8.16829C10.6453 7.08405 10.8185 6.58962 9.82209 5.59323C9.43181 5.20422 9.0817 4.83528 8.75919 4.49645C7.76405 3.44987 7.04625 2.69316 6.43763 2.68438H6.42759C5.82649 2.68438 4.89285 3.32689 3.57144 4.6483C3.5752 4.64453 3.57646 4.64328 3.57771 4.64328ZM20.1461 26.5274C17.0189 26.5274 12.9418 24.0377 8.02634 19.1247C3.09208 14.1917 0.598592 10.102 0.617415 6.96852C0.628709 4.89794 1.7142 3.83755 2.12204 3.43975C2.14337 3.41339 2.21616 3.34186 2.24125 3.31677C4.04078 1.51599 5.25427 0.788146 6.46148 0.80195C7.8632 0.820774 8.86084 1.86987 10.1233 3.19881C10.4357 3.52759 10.7746 3.88524 11.1523 4.26171C12.9844 6.09386 12.4624 7.58844 12.0433 8.78812C11.5865 10.097 11.1912 11.2264 13.5579 13.5931C15.9272 15.9599 17.0566 15.5646 18.3604 15.104C19.5614 14.6849 21.0522 14.1603 22.8868 15.9925C23.2583 16.3639 23.6109 16.699 23.9359 17.009C25.2712 18.2777 26.3253 19.2803 26.3428 20.6858C26.3579 21.8842 25.6301 23.1053 23.833 24.9035L23.0374 24.3639L23.7101 25.0215C23.3123 25.4293 22.2531 26.5161 20.1813 26.5274H20.1461Z" fill="#8358A5"/>
</g>
</svg>
