<svg width="30" height="30" viewBox="0 0 30 30" fill="none" xmlns="http://www.w3.org/2000/svg">
<path fill-rule="evenodd" clip-rule="evenodd" d="M10.7484 20.6993C10.2309 20.6993 9.81091 20.2793 9.81091 19.7618V15.0806C9.81091 14.5631 10.2309 14.1431 10.7484 14.1431C11.2659 14.1431 11.6859 14.5631 11.6859 15.0806V19.7618C11.6859 20.2793 11.2659 20.6993 10.7484 20.6993Z" fill="#8358A5"/>
<path fill-rule="evenodd" clip-rule="evenodd" d="M13.1371 18.3579H8.36084C7.84334 18.3579 7.42334 17.9379 7.42334 17.4204C7.42334 16.9029 7.84334 16.4829 8.36084 16.4829H13.1371C13.6546 16.4829 14.0746 16.9029 14.0746 17.4204C14.0746 17.9379 13.6546 18.3579 13.1371 18.3579Z" fill="#8358A5"/>
<path fill-rule="evenodd" clip-rule="evenodd" d="M18.8963 16.1606H18.7626C18.2451 16.1606 17.8251 15.7406 17.8251 15.2231C17.8251 14.7056 18.2451 14.2856 18.7626 14.2856H18.8963C19.4138 14.2856 19.8338 14.7056 19.8338 15.2231C19.8338 15.7406 19.4138 16.1606 18.8963 16.1606Z" fill="#8358A5"/>
<path fill-rule="evenodd" clip-rule="evenodd" d="M21.1632 20.6284H21.0295C20.512 20.6284 20.092 20.2084 20.092 19.6909C20.092 19.1734 20.512 18.7534 21.0295 18.7534H21.1632C21.6807 18.7534 22.1007 19.1734 22.1007 19.6909C22.1007 20.2084 21.6807 20.6284 21.1632 20.6284Z" fill="#8358A5"/>
<mask id="mask0_1951_704" style="mask-type:luminance" maskUnits="userSpaceOnUse" x="8" y="1" width="9" height="8">
<path fill-rule="evenodd" clip-rule="evenodd" d="M8.84082 1.25H16.3908V8.23487H8.84082V1.25Z" fill="white"/>
</mask>
<g mask="url(#mask0_1951_704)">
<path fill-rule="evenodd" clip-rule="evenodd" d="M15.4533 8.235C14.9358 8.235 14.5158 7.815 14.5158 7.2975V6.45375C14.5121 5.54875 13.7446 4.805 12.8058 4.80125H11.4883C10.0296 4.80125 8.84082 3.62875 8.84082 2.1875C8.84082 1.67 9.26082 1.25 9.77832 1.25C10.2971 1.25 10.7158 1.67 10.7158 2.1875C10.7158 2.595 11.0621 2.92625 11.4883 2.92625H12.8096C14.7758 2.9325 16.3821 4.5125 16.3908 6.44875V7.2975C16.3908 7.815 15.9708 8.235 15.4533 8.235Z" fill="#8358A5"/>
</g>
<mask id="mask1_1951_704" style="mask-type:luminance" maskUnits="userSpaceOnUse" x="1" y="6" width="28" height="23">
<path fill-rule="evenodd" clip-rule="evenodd" d="M1.25134 6.7168H28.1261V28.1252H1.25134V6.7168Z" fill="white"/>
</mask>
<g mask="url(#mask1_1951_704)">
<path fill-rule="evenodd" clip-rule="evenodd" d="M14.6276 8.5918C12.7826 8.5918 10.9601 8.60805 9.17009 8.63805C5.66134 8.63805 3.12634 11.1105 3.12634 14.5155V20.328C3.12634 23.7318 5.66134 26.2043 9.15509 26.2043C12.8388 26.2655 16.5526 26.2655 20.2076 26.2043H20.2238C23.7163 26.2043 26.2513 23.7318 26.2513 20.328V14.5155C26.2513 11.1105 23.7163 8.63805 20.2238 8.63805C18.3438 8.60805 16.4751 8.5918 14.6276 8.5918ZM14.6938 28.1252C12.8401 28.1252 10.9838 28.109 9.13884 28.079C4.57509 28.079 1.25134 24.8177 1.25134 20.3277V14.5152C1.25134 10.024 4.57509 6.76273 9.15509 6.76273C12.7413 6.70148 16.4763 6.70148 20.2388 6.76273C24.8026 6.76273 28.1263 10.024 28.1263 14.5152V20.3277C28.1263 24.8152 24.8076 28.0752 20.2313 28.079C18.3963 28.109 16.5463 28.1252 14.6938 28.1252Z" fill="#8358A5"/>
</g>
</svg>
