<svg width="30" height="30" viewBox="0 0 30 30" fill="none" xmlns="http://www.w3.org/2000/svg">
<mask id="mask0_1951_872" style="mask-type:luminance" maskUnits="userSpaceOnUse" x="5" y="2" width="22" height="26">
<path fill-rule="evenodd" clip-rule="evenodd" d="M5.0011 2.5H26.2096V27.9445H5.0011V2.5Z" fill="white"/>
</mask>
<g mask="url(#mask0_1951_872)">
<path fill-rule="evenodd" clip-rule="evenodd" d="M15.6054 4.375C14.5454 4.375 7.85787 6.73 7.08662 7.37375C6.85912 7.6025 6.85037 8 6.89912 10.6613C6.92162 11.9437 6.95287 13.6862 6.95287 16.0987C6.95287 22.6 14.1054 25.4862 15.6041 26.0175C17.1016 25.4837 24.2579 22.5812 24.2579 16.0987C24.2579 13.6837 24.2891 11.94 24.3129 10.6575C24.3604 7.99875 24.3516 7.60125 24.1104 7.36125C23.3541 6.73 16.6654 4.375 15.6054 4.375ZM15.6054 27.945C15.5141 27.945 15.4229 27.9325 15.3341 27.905C14.9154 27.7787 5.07787 24.7013 5.07787 16.0987C5.07787 13.7025 5.04662 11.9688 5.02412 10.6962C4.96662 7.5175 4.95412 6.855 5.77537 6.035C6.75662 5.05125 14.1879 2.5 15.6054 2.5C17.0216 2.5 24.4529 5.05125 25.4366 6.035C26.2566 6.855 26.2441 7.5175 26.1866 10.6925C26.1641 11.965 26.1329 13.6987 26.1329 16.0987C26.1329 24.7013 16.2954 27.7787 15.8766 27.905C15.7879 27.9325 15.6966 27.945 15.6054 27.945Z" fill="#8358A5"/>
</g>
<path fill-rule="evenodd" clip-rule="evenodd" d="M14.7223 18.1491C14.4735 18.1491 14.2348 18.0504 14.0585 17.8741L11.6935 15.5066C11.3285 15.1404 11.3285 14.5454 11.6948 14.1804C12.0598 13.8141 12.6548 13.8141 13.021 14.1804L14.7223 15.8841L18.9323 11.6741C19.2985 11.3079 19.891 11.3079 20.2573 11.6741C20.6235 12.0404 20.6235 12.6341 20.2573 13.0004L15.3848 17.8741C15.2098 18.0504 14.971 18.1491 14.7223 18.1491Z" fill="#8358A5"/>
</svg>
