<svg width="25" height="24" viewBox="0 0 25 24" fill="none" xmlns="http://www.w3.org/2000/svg">
<path fill-rule="evenodd" clip-rule="evenodd" d="M12.6885 2.625C12.5747 2.625 12.2947 2.65625 12.146 2.95375L9.86349 7.5175C9.50224 8.23875 8.80599 8.74 8.00099 8.855L2.89099 9.59125C2.55349 9.64 2.43849 9.89 2.40349 9.995C2.37224 10.0963 2.32224 10.3538 2.55474 10.5763L6.24974 14.1263C6.83849 14.6925 7.10599 15.5088 6.96599 16.3075L6.09599 21.32C6.04224 21.6338 6.23849 21.8163 6.32599 21.8788C6.41849 21.9488 6.66599 22.0875 6.97224 21.9275L11.541 19.5588C12.261 19.1875 13.1185 19.1875 13.836 19.5588L18.4035 21.9263C18.711 22.085 18.9585 21.9463 19.0522 21.8788C19.1397 21.8163 19.336 21.6338 19.2822 21.32L18.4097 16.3075C18.2697 15.5088 18.5372 14.6925 19.126 14.1263L22.821 10.5763C23.0547 10.3538 23.0047 10.095 22.9722 9.995C22.9385 9.89 22.8235 9.64 22.486 9.59125L17.376 8.855C16.5722 8.74 15.876 8.23875 15.5147 7.51625L13.2297 2.95375C13.0822 2.65625 12.8022 2.625 12.6885 2.625ZM6.68474 23.875C6.16849 23.875 5.65599 23.7125 5.21724 23.3925C4.45974 22.8375 4.08849 21.9212 4.24974 20.9987L5.11974 15.9862C5.15224 15.8 5.08849 15.6112 4.95099 15.4788L1.25599 11.9288C0.575994 11.2775 0.332244 10.315 0.619744 9.42125C0.909744 8.5175 1.67724 7.87125 2.62349 7.73625L7.73349 7C7.93099 6.9725 8.10099 6.85125 8.18599 6.67875L10.4697 2.11375C10.891 1.2725 11.741 0.75 12.6885 0.75C13.636 0.75 14.486 1.2725 14.9072 2.11375L17.1922 6.6775C17.2785 6.85125 17.4472 6.9725 17.6435 7L22.7535 7.73625C23.6997 7.87125 24.4672 8.5175 24.7572 9.42125C25.0447 10.315 24.7997 11.2775 24.1197 11.9288L20.4247 15.4788C20.2872 15.6112 20.2247 15.8 20.2572 15.985L21.1285 20.9987C21.2885 21.9225 20.9172 22.8388 20.1585 23.3925C19.3897 23.9563 18.3885 24.0325 17.5397 23.59L12.9735 21.2237C12.7947 21.1313 12.581 21.1313 12.4022 21.2237L7.83599 23.5913C7.47099 23.7812 7.07724 23.875 6.68474 23.875Z" fill="#8358A5"/>
</svg>
