<svg width="30" height="30" viewBox="0 0 30 30" fill="none" xmlns="http://www.w3.org/2000/svg">
<path fill-rule="evenodd" clip-rule="evenodd" d="M17.0006 10.2137C16.4831 10.2137 16.0631 9.79375 16.0631 9.27625V6.25C16.0631 5.7325 16.4831 5.3125 17.0006 5.3125C17.5181 5.3125 17.9381 5.7325 17.9381 6.25V9.27625C17.9381 9.79375 17.5181 10.2137 17.0006 10.2137Z" fill="#8358A5"/>
<path fill-rule="evenodd" clip-rule="evenodd" d="M17.0006 26.6049C16.4831 26.6049 16.0631 26.1849 16.0631 25.6674V23.1387C16.0631 22.6199 16.4831 22.2012 17.0006 22.2012C17.5181 22.2012 17.9381 22.6199 17.9381 23.1387V25.6674C17.9381 26.1849 17.5181 26.6049 17.0006 26.6049Z" fill="#8358A5"/>
<path fill-rule="evenodd" clip-rule="evenodd" d="M17.0006 19.7811C16.4831 19.7811 16.0631 19.3611 16.0631 18.8436V12.8174C16.0631 12.2999 16.4831 11.8799 17.0006 11.8799C17.5181 11.8799 17.9381 12.2999 17.9381 12.8174V18.8436C17.9381 19.3611 17.5181 19.7811 17.0006 19.7811Z" fill="#8358A5"/>
<mask id="mask0_1951_969" style="mask-type:luminance" maskUnits="userSpaceOnUse" x="1" y="5" width="28" height="22">
<path fill-rule="evenodd" clip-rule="evenodd" d="M1.2511 5H28.1261V26.8746H1.2511V5Z" fill="white"/>
</mask>
<g mask="url(#mask0_1951_969)">
<path fill-rule="evenodd" clip-rule="evenodd" d="M3.1261 19.4425V21.8662C3.1261 23.5938 4.55485 25 6.3111 25H23.0661C24.8223 25 26.2511 23.5938 26.2511 21.8662V19.4425C24.6873 19.0312 23.5298 17.6163 23.5298 15.9388C23.5298 14.26 24.6861 12.8463 26.2511 12.435L26.2498 10.0087C26.2498 8.28125 24.8211 6.875 23.0648 6.875H6.31235C4.5561 6.875 3.12735 8.28125 3.12735 10.0087L3.1261 12.5312C4.70985 12.92 5.84735 14.2775 5.84735 15.9388C5.84735 17.6163 4.68985 19.0312 3.1261 19.4425ZM23.0661 26.875H6.3111C3.5211 26.875 1.2511 24.6275 1.2511 21.8662V18.6263C1.2511 18.1088 1.6711 17.6888 2.1886 17.6888C3.17235 17.6888 3.97235 16.9038 3.97235 15.9388C3.97235 15.0013 3.20485 14.2937 2.1886 14.2937C1.93985 14.2937 1.7011 14.195 1.5261 14.0188C1.34985 13.8438 1.2511 13.6038 1.2511 13.3562L1.25235 10.0087C1.25235 7.2475 3.52235 5 6.31235 5H23.0648C25.8548 5 28.1248 7.2475 28.1248 10.0087L28.1261 13.2512C28.1261 13.4987 28.0273 13.7388 27.8511 13.9137C27.6761 14.09 27.4373 14.1887 27.1886 14.1887C26.2048 14.1887 25.4048 14.9738 25.4048 15.9388C25.4048 16.9038 26.2048 17.6888 27.1886 17.6888C27.7061 17.6888 28.1261 18.1088 28.1261 18.6263V21.8662C28.1261 24.6275 25.8561 26.875 23.0661 26.875Z" fill="#8358A5"/>
</g>
</svg>
