<svg width="30" height="30" viewBox="0 0 30 30" fill="none" xmlns="http://www.w3.org/2000/svg">
<path fill-rule="evenodd" clip-rule="evenodd" d="M27.3619 19.8696H22.302C19.9307 19.8696 18.0007 17.9408 17.9995 15.5708C17.9995 13.1983 19.9295 11.2683 22.302 11.2671H27.3619C27.8795 11.2671 28.2994 11.6871 28.2994 12.2046C28.2994 12.7221 27.8795 13.1421 27.3619 13.1421H22.302C20.9632 13.1433 19.8745 14.2321 19.8745 15.5696C19.8745 16.9058 20.9645 17.9946 22.302 17.9946H27.3619C27.8795 17.9946 28.2994 18.4146 28.2994 18.9321C28.2994 19.4496 27.8795 19.8696 27.3619 19.8696Z" fill="#8358A5"/>
<path fill-rule="evenodd" clip-rule="evenodd" d="M22.8739 16.4297H22.4839C21.9664 16.4297 21.5464 16.0097 21.5464 15.4922C21.5464 14.9747 21.9664 14.5547 22.4839 14.5547H22.8739C23.3914 14.5547 23.8114 14.9747 23.8114 15.4922C23.8114 16.0097 23.3914 16.4297 22.8739 16.4297Z" fill="#8358A5"/>
<mask id="mask0_1951_911" style="mask-type:luminance" maskUnits="userSpaceOnUse" x="2" y="3" width="27" height="25">
<path fill-rule="evenodd" clip-rule="evenodd" d="M2.5011 3.75H28.2993V27.7161H2.5011V3.75Z" fill="white"/>
</mask>
<g mask="url(#mask0_1951_911)">
<path fill-rule="evenodd" clip-rule="evenodd" d="M9.99811 5.625C6.89811 5.625 4.37561 8.1475 4.37561 11.2475V20.2188C4.37561 23.3188 6.89811 25.8413 9.99811 25.8413H20.8031C23.9031 25.8413 26.4244 23.3188 26.4244 20.2188V11.2475C26.4244 8.1475 23.9031 5.625 20.8031 5.625H9.99811ZM20.8031 27.7163H9.99811C5.86436 27.7163 2.50061 24.3525 2.50061 20.2188V11.2475C2.50061 7.1125 5.86436 3.75 9.99811 3.75H20.8031C24.9369 3.75 28.2994 7.1125 28.2994 11.2475V20.2188C28.2994 24.3525 24.9369 27.7163 20.8031 27.7163Z" fill="#8358A5"/>
</g>
<path fill-rule="evenodd" clip-rule="evenodd" d="M15.8568 11.2979H9.10809C8.59059 11.2979 8.17059 10.8779 8.17059 10.3604C8.17059 9.84285 8.59059 9.42285 9.10809 9.42285H15.8568C16.3743 9.42285 16.7943 9.84285 16.7943 10.3604C16.7943 10.8779 16.3743 11.2979 15.8568 11.2979Z" fill="#8358A5"/>
</svg>
