<?xml version="1.0" encoding="UTF-8"?>
<svg id="Layer_1" data-name="Layer 1" xmlns="http://www.w3.org/2000/svg" viewBox="0 0 54.3 55">
  <defs>
    <style>
      .cls-1 {
        fill: #fff;
      }

      .cls-1, .cls-2 {
        fill-rule: evenodd;
      }

      .cls-2 {
        fill: #cc2229;
      }
    </style>
  </defs>
  <path class="cls-2" d="M52.17,16.81c-1.37-3.29-3.31-6.23-5.83-8.76-2.49-2.53-5.38-4.5-8.61-5.89-3.36-1.44-6.9-2.15-10.58-2.15s-7.2.72-10.56,2.15c-3.25,1.39-6.14,3.36-8.64,5.89-2.51,2.53-4.45,5.47-5.83,8.76-1.41,3.4-2.13,6.97-2.13,10.7s.72,7.28,2.13,10.68c1.37,3.29,3.31,6.23,5.83,8.76,2.49,2.53,5.38,4.5,8.64,5.89,3.36,1.44,6.86,2.15,10.56,2.15s7.22-.72,10.58-2.15c3.23-1.39,6.12-3.36,8.61-5.89,2.51-2.53,4.45-5.47,5.83-8.76,1.41-3.4,2.13-6.97,2.13-10.68s-.72-7.31-2.13-10.7h0ZM38.78,24.05c1.25,0,2.34.44,3.25,1.35.89.91,1.33,2.01,1.33,3.27s-.44,2.36-1.33,3.25c-.91.91-2.01,1.37-3.25,1.37s-2.32-.46-3.21-1.37c-.91-.89-1.35-1.98-1.35-3.25s.44-2.36,1.35-3.27c.89-.91,1.96-1.35,3.21-1.35ZM5.89,23.46c1.1-1.14,2.41-1.69,3.99-1.67,1.27-.02,2.43.38,3.44,1.18.99.78,1.65,1.79,1.98,3.02h-2.3c-.3-.59-.72-1.1-1.25-1.46-.59-.38-1.2-.57-1.88-.57-.97,0-1.79.36-2.47,1.03-.7.7-1.03,1.52-1.01,2.49-.02.97.32,1.79,1.01,2.49.68.68,1.5,1.03,2.47,1.03.68,0,1.29-.19,1.88-.55.53-.38.96-.88,1.25-1.46h2.3c-.34,1.22-.99,2.22-1.98,3.02-1.01.78-2.17,1.16-3.44,1.16-1.58,0-2.89-.55-3.99-1.65-1.12-1.12-1.67-2.49-1.67-4.05s.55-2.91,1.67-4.03h0ZM20.71,25.19c.59-.78,1.63-1.18,3.1-1.16.95-.02,1.79.17,2.55.57.72.38,1.1,1.12,1.1,2.17v6.46h-2.2v-.91c-.68.59-1.63.89-2.83.91-.74-.02-1.35-.23-1.79-.61-.51-.46-.76-1.1-.74-1.88-.02-1.12.38-1.9,1.2-2.39.49-.27,1.12-.46,1.9-.57l1.69-.27c.34-.15.51-.38.51-.68-.02-.36-.13-.61-.38-.74-.25-.15-.61-.23-1.08-.21-.55-.02-.93.13-1.16.42-.15.17-.27.42-.32.8h-2.2c.06-.8.25-1.44.63-1.92h0ZM16.43,21.79h2.2v11.44h-2.2v-11.44ZM31.04,25.59c.44-.61.97-1.01,1.56-1.25l.84-.23.57-.04.02,2.24-.68-.04c-.42,0-.82.13-1.2.38-.34.23-.61.51-.76.84-.19.32-.27.82-.27,1.54v4.2h-2.17v-8.78l2.09.02v1.12h0ZM49.05,19.09l-5.3,5.3-1.39-1.39,5.3-5.3,1.39,1.39ZM40.03,16.59v5.68h-1.96v-5.68h1.96ZM44.72,28.54v-1.96h5.81v1.96h-5.81Z"/>
  <path class="cls-1" d="M42.04,25.4c-.91-.91-2.01-1.35-3.25-1.35s-2.32.44-3.21,1.35c-.91.91-1.35,2.01-1.35,3.27s.44,2.36,1.35,3.25c.89.91,1.96,1.37,3.21,1.37s2.34-.46,3.25-1.37c.89-.89,1.33-1.98,1.33-3.25s-.44-2.36-1.33-3.27h0ZM40.5,30.38c-.46.49-1.03.72-1.71.72s-1.22-.23-1.69-.72c-.46-.49-.72-1.06-.72-1.71,0-.7.25-1.27.72-1.73.46-.49,1.03-.72,1.69-.7.68-.02,1.25.21,1.73.7.44.46.68,1.03.7,1.73-.02.65-.25,1.22-.72,1.71h0Z"/>
  <path class="cls-2" d="M38.78,31.1c.68,0,1.25-.23,1.71-.72s.7-1.06.72-1.71c-.02-.7-.25-1.27-.72-1.73-.46-.49-1.03-.72-1.71-.7-.65-.02-1.22.21-1.69.7-.46.46-.72,1.03-.72,1.73,0,.65.25,1.22.72,1.71.46.49,1.03.72,1.69.72Z"/>
  <path class="cls-1" d="M9.88,21.79c-1.58-.02-2.89.53-3.99,1.67-1.12,1.12-1.67,2.45-1.67,4.03s.55,2.93,1.67,4.05c1.1,1.1,2.41,1.65,3.99,1.65,1.27,0,2.43-.38,3.44-1.16.99-.8,1.65-1.79,1.98-3.02h-2.3c-.29.58-.72,1.08-1.25,1.46-.59.36-1.2.55-1.88.55-.97,0-1.79-.36-2.47-1.03-.7-.7-1.03-1.52-1.01-2.49-.02-.97.32-1.79,1.01-2.49.68-.68,1.5-1.03,2.47-1.03.68,0,1.29.19,1.88.57.53.36.95.87,1.25,1.46h2.3c-.34-1.22-.99-2.24-1.98-3.02-1.01-.8-2.17-1.2-3.44-1.18ZM23.82,24.03c-1.48-.02-2.51.38-3.1,1.16-.38.49-.57,1.12-.63,1.92h2.2c.04-.38.17-.63.32-.8.23-.3.61-.44,1.16-.42.46-.02.82.06,1.08.21.25.13.36.38.38.74,0,.3-.17.53-.51.68l-1.69.27c-.78.11-1.41.3-1.9.57-.82.49-1.22,1.27-1.2,2.39-.02.78.23,1.41.74,1.88.44.38,1.06.59,1.79.61,1.2-.02,2.15-.32,2.83-.91v.91h2.2v-6.46c0-1.06-.38-1.79-1.1-2.17-.76-.4-1.6-.59-2.56-.57h0ZM24.75,28.99l.42-.23v.89c0,.76-.21,1.29-.61,1.58-.42.3-.87.44-1.37.44-.32,0-.57-.08-.78-.25-.21-.19-.32-.46-.32-.87,0-.44.17-.76.53-.99.21-.13.57-.23,1.03-.3l1.1-.27h0Z"/>
  <path class="cls-2" d="M25.17,28.76l-.42.23-1.1.27c-.46.06-.82.17-1.03.3-.36.23-.53.55-.53.99,0,.4.11.68.32.87.21.17.46.25.78.25.51,0,.95-.15,1.37-.44.4-.3.61-.82.61-1.58v-.89h0,0Z"/>
  <path class="cls-1" d="M18.62,21.79h-2.2v11.44h2.2v-11.44ZM32.6,24.34c-.59.23-1.12.63-1.56,1.25v-1.12l-2.09-.02v8.78h2.17v-4.2c0-.72.08-1.22.27-1.54.15-.34.42-.61.76-.84.38-.25.78-.38,1.2-.38l.68.04-.02-2.24-.57.04-.85.23h0ZM43.75,24.39l5.3-5.3-1.39-1.39-5.3,5.3,1.39,1.39ZM40.03,22.27v-5.68h-1.96v5.68h1.96ZM44.72,26.58v1.96h5.81v-1.96h-5.81Z"/>
</svg>