<?xml version="1.0" encoding="UTF-8"?>
<svg id="Layer_1" data-name="Layer 1" xmlns="http://www.w3.org/2000/svg" viewBox="0 0 284.49 55">
  <defs>
    <style>
      .cls-1 {
        fill: #00abe1;
      }
    </style>
  </defs>
  <path class="cls-1" d="M58.77.22c2.33-.36,4.92-.42,6.99.9,2.99,1.78,4.7,5.01,5.88,8.17,3.32,9.12,3.64,19.1,2.24,28.64-.31,2.44-1.25,5.2-3.64,6.31-1.42.48-3.23.35-4.21-.91-1.59-1.92-1.09-4.56-.95-6.84.51-3.6.71-7.26.55-10.89-.01-1.66-.57-3.45-1.99-4.43-1.2-.91-2.93-.73-4.12.1-2.02,1.31-3.34,3.41-4.42,5.51-2.65,5.46-4.12,11.39-6.1,17.11-.99,2.66-2.59,5.19-4.97,6.81-2.85,2.01-6.47,2.54-9.88,2.41-4.35-.21-8.27-2.94-10.56-6.56-2.85-4.6-5.38-9.4-8.17-14.04-.88-1.35-2.07-3.08-3.92-2.88-1.94.18-2.67,2.35-2.61,4.02.14,5.73,2.91,10.95,3.9,16.52.34,1.72-.15,3.88-1.88,4.66-1.06.15-2.17.28-3.22,0-1.54-.59-2.34-2.18-3.03-3.56-2.4-5.76-3.9-11.88-4.67-18.06.11-3.17-.19-6.38.48-9.51.92-5.1,2.32-10.5,6.1-14.27,3.26-3.3,8.87-4.28,12.82-1.68,3.83,2.66,6.21,6.79,8.72,10.6,1.85,2.94,3.57,6.39,6.96,7.81,2.34,1.14,5.34.44,7.06-1.47,1.23-1.27,1.84-2.97,2.49-4.58,1.38-3.47,2.76-6.93,4.28-10.34,1.72-4.37,5.12-8.43,9.85-9.56h0ZM228.34,11.22c1.77-.14,3.54-.06,5.31,0,.13,1.78-.11,3.57.16,5.33,1.81-.06,3.63-.11,5.44.03.05,1.57.22,3.16-.12,4.72-1.8-.03-3.6-.02-5.4,0-.09,3.8-.02,7.6-.04,11.4.02,1.61,0,3.46,1.22,4.68,1.22,1.17,3.05.99,4.61,1.13.22,1.63.24,3.29-.06,4.91-2.96.03-6.22-.02-8.64-1.98-2.17-1.73-2.79-4.64-2.86-7.28-.04-7.08.03-14.17-.03-21.26.12-.52-.29-1.51.42-1.7ZM94.57,18.57c2.68-2.4,6.49-2.7,9.93-2.57,2.8,0,5.6.76,7.81,2.51,2.47-2.56,6.3-2.57,9.61-2.51,3.02,0,6.24.9,8.28,3.25,1.5,1.76,1.78,4.17,1.83,6.4.02,4.71,0,9.42,0,14.13,0,1.22.13,2.48-.26,3.66-1.76-.08-3.51.08-5.26-.09l-.18-.26c-.19-6.13.17-12.29-.2-18.42.03-1.97-1.79-3.41-3.64-3.55-2.11-.13-4.57-.39-6.29,1.11-1.28,1.06-1.13,2.87-1.21,4.36-.06,4.87-.03,9.75-.02,14.63-.12.68.22,1.66-.37,2.16-1.79.06-3.6.13-5.39-.08,0-6.22.15-12.44-.15-18.65,0-2.1-2.1-3.5-4.04-3.56-1.78-.09-3.72-.23-5.32.68-1.04.58-1.67,1.72-1.7,2.9-.41,6.24-.02,12.51-.26,18.75-1.81,0-3.62-.01-5.42.01-.18-.87-.26-1.76-.23-2.65.06-5.21-.05-10.42.05-15.62.03-2.38.57-4.95,2.43-6.59h0ZM143.91,16.53c4.16-.82,8.77-.99,12.67.9,3.67,1.88,4.6,6.37,4.75,10.14.06,4.14.31,8.66-1.96,12.32-2.11,3.3-6.4,4.06-10.03,3.98-3.48.09-7.43-.4-9.87-3.15-2.64-3.29-2.61-7.78-2.62-11.78.1-3.27.4-6.85,2.45-9.55,1.13-1.46,2.84-2.37,4.6-2.86M146.27,21.22c-1.64.35-2.85,1.79-3.17,3.4-.59,3.48-.59,7.04-.02,10.53.33,1.37,1.11,2.8,2.52,3.26,2.12.7,4.45.66,6.6.14,1.57-.32,2.56-1.78,2.92-3.24.64-3.57.61-7.24,0-10.81-.42-1.65-1.72-3.1-3.47-3.34-1.79-.21-3.62-.25-5.39.07ZM207.6,17.33c3.87-1.93,8.41-1.41,12.54-.79.53.21,1.6.02,1.7.79.07,1.3.05,2.61.02,3.91-.17.07-.5.2-.66.27-2.99-.52-6.06-1.05-9.1-.57-1.19.2-2.71.92-2.69,2.32-.27,1.2.77,2.04,1.72,2.5,3.32,1.53,7.09,2.23,10.03,4.52,2.46,1.87,2.71,5.39,1.92,8.16-1.24,3.51-5.08,5.18-8.57,5.37-3.32.15-6.8.06-9.89-1.22-.59-1.45-.22-3.16-.17-4.71,3.76.91,7.8,1.9,11.6.67,1.95-.51,2.66-3.34.97-4.56-3.37-2.07-7.57-2.47-10.78-4.85-3.71-2.99-2.89-9.67,1.34-11.8h0ZM246,17.62c-.17-.68.58-1.08,1.14-1.11,3.89-.52,7.88-.85,11.75,0,2.47.63,4.9,2.14,5.96,4.55,1.35,2.91.84,6.2.94,9.3-.07,3.06.34,6.32-1.02,9.18-1.31,2.74-4.5,3.88-7.32,4.24-3.52.22-7.29.26-10.46-1.51-5.21-2.92-5.01-11.8.32-14.49,3.93-2.07,8.53-1.4,12.76-.92.11-1.98-.2-4.46-2.27-5.35-3.79-1.47-7.88-.24-11.79-.27,0-1.21-.06-2.42-.01-3.62M249.82,37.56c1.58,1.71,4.12,1.58,6.25,1.51,1.44-.05,3.1-.66,3.68-2.09.49-1.72.25-3.54.33-5.3-2.69-.7-5.57-.87-8.3-.34-2.72.5-3.78,4.25-1.96,6.22ZM272.87,18.75c2.99-3.01,7.61-2.94,11.55-2.66.11,1.6.08,3.2-.03,4.79-2.18.37-4.71-.43-6.59,1.01-1.16.85-1.28,2.41-1.32,3.72-.11,5.89,0,11.79-.06,17.69-1.85.24-3.71.04-5.56.15-.45-4.8-.07-9.65-.2-14.48.09-3.46-.46-7.52,2.21-10.22ZM164.47,16.57c1.99-.03,4.02-.26,5.99.15.48,7.31,2.55,14.49,5.78,21.04.55-.71.9-1.55,1.23-2.38,2.53-5.91,4.28-12.22,4.63-18.67,1.96-.38,3.97-.18,5.96-.12-.26,9.29-4.17,18-8.35,26.14-.29.88-1.33.66-2.03.7-1.46-.05-2.94.1-4.39-.1l-.47-.59c-4.37-8.08-8.1-16.86-8.35-26.17h0ZM192.78,16.59c1.89-.14,3.79-.12,5.69-.02.08,8.87.13,17.77-.02,26.64-1.75.51-3.72.05-5.54.22-.1-8.94-.25-17.89-.12-26.84Z"/>
</svg>