<?xml version="1.0" encoding="UTF-8"?>
<svg id="Layer_1" data-name="Layer 1" xmlns="http://www.w3.org/2000/svg" viewBox="0 0 76.56 55">
  <defs>
    <style>
      .cls-1 {
        fill: #396bb4;
      }
    </style>
  </defs>
  <path class="cls-1" d="M60.01,1.26c3.2-1.59,7.04-1.64,10.35-.36,1.91.76,3.73,1.94,4.92,3.65.97,1.47.78,3.3.75,4.98-.99-1.05-1.98-2.13-3.21-2.93-2.43-1.68-5.49-2.32-8.41-1.99-3.56.27-7.05,1.99-9.19,4.89.03-1.42-.23-2.93.38-4.27.81-1.89,2.63-3.1,4.42-3.97Z"/>
  <path class="cls-1" d="M20.06,4.12c1.7-.43,3.61.66,4.06,2.36.65,2.03-1.07,4.34-3.2,4.31-1.84.11-3.47-1.57-3.44-3.39-.03-1.52,1.1-2.94,2.58-3.29Z"/>
  <path class="cls-1" d="M3.33,7.46c.75-.39,1.62-.27,2.44-.28,0,1.76-.01,3.51,0,5.27,2.68,0,5.36,0,8.04,0-.04.97.07,1.95-.08,2.92-.32,1.37-1.75,2.18-3.08,2.2-1.63.02-3.25.02-4.88,0,0,3.14,0,6.27,0,9.41,0,1.22.32,2.6,1.4,3.32,1.08.72,2.46.6,3.69.52,1.03-.06,2.02-.38,2.94-.82-.07,1.37.26,2.88-.51,4.11-.74,1.22-2.22,1.69-3.57,1.83-1.85.15-3.77-.04-5.48-.8-1.67-.71-2.98-2.18-3.59-3.88C.13,29.89-.02,28.42,0,26.97,0,22.41,0,17.85,0,13.29c.02-1.16.15-2.39.82-3.37.66-.97,1.44-1.91,2.5-2.46Z"/>
  <path class="cls-1" d="M64.81,11.95c2.37-.14,4.82.39,6.81,1.72,2.78,1.85,4.46,5.05,4.84,8.32.3,2.99-.1,6.13-1.58,8.78-1.32,2.43-3.63,4.31-6.32,5.01-3.26.87-7,.57-9.8-1.44-2.61-1.81-4.16-4.86-4.57-7.96-.35-2.98.06-6.1,1.46-8.77.94-1.81,2.4-3.37,4.21-4.33,1.51-.83,3.23-1.23,4.95-1.34ZM63.74,17.26c-1.16.28-2.13,1.11-2.71,2.14-.92,1.6-1.04,3.5-.95,5.3.09,1.7.46,3.49,1.59,4.82,1.22,1.42,3.28,1.79,5.06,1.45,1.38-.28,2.52-1.32,3.09-2.59.76-1.62.83-3.46.7-5.22-.15-1.72-.59-3.56-1.9-4.79-1.27-1.23-3.21-1.47-4.89-1.12Z"/>
  <path class="cls-1" d="M38.74,12.91c2.42-.76,5.03-1.06,7.53-.6,1.76.34,3.58,1.27,4.39,2.95.64,1.19.38,2.58.43,3.87-.24,0-.47,0-.71,0-1.96-1.45-4.46-1.94-6.86-1.97-2.25-.04-4.59.85-6.01,2.65-1.13,1.34-1.59,3.14-1.49,4.87.06,1.91.54,3.97,1.97,5.35,1.52,1.55,3.83,1.97,5.92,1.88.79-.05,1.89-.27,1.99-1.22.1-2.09.07-4.2-.41-6.25,1.11.03,2.23-.03,3.34.04,1.42.13,2.79,1.36,2.69,2.86-.09,2.08.32,4.29-.59,6.25-.81,1.77-2.7,2.7-4.52,3.07-3.49.68-7.29.36-10.42-1.42-2.68-1.46-4.74-4.01-5.5-6.98-.85-3.28-.49-6.94,1.24-9.88,1.52-2.64,4.13-4.56,7.01-5.48Z"/>
  <path class="cls-1" d="M17.99,12.96c1.35.05,2.81-.16,4.02.57,1.19.66,1.73,2.07,1.73,3.37.02,3.1,0,6.2.01,9.31.01,1.01-.07,2.02.11,3.02.1.63.45,1.26,1.04,1.54,1.07.57,2.32.43,3.48.44-.02,1.21.13,2.54-.55,3.62-.54.84-1.61,1.08-2.55,1.12-1.9.07-3.97-.35-5.37-1.73-1.47-1.42-1.93-3.56-1.92-5.54,0-5.24,0-10.48,0-15.72Z"/>
  <path class="cls-1" d="M36.27,40.27c1.72,2.19,3.66,4.27,6.05,5.74,2.89,1.83,6.34,2.69,9.74,2.57,4.5-.06,9.02-1.66,12.41-4.66,1.25-1.02,2.19-2.33,3.17-3.6.02,1.86.21,3.79-.45,5.57-.81,2.63-2.94,4.58-5.18,6.05-3.09,2.03-6.8,3.21-10.51,3.05-4.78-.17-9.54-2.2-12.78-5.76-.91-.99-1.68-2.12-2.05-3.43-.62-1.77-.46-3.68-.41-5.53Z"/>
</svg>