<svg width="193" height="78" viewBox="0 0 193 78" fill="none" xmlns="http://www.w3.org/2000/svg">
<rect width="192.532" height="78" rx="24" fill="#8358A5"/>
<path d="M129.459 30.6641V33.9198H127.35V36.0549H129.459V43.3094C129.459 45.7867 130.617 46.7776 133.531 46.7776C134.043 46.7776 134.531 46.7186 134.957 46.6478V44.5363C134.592 44.5717 134.36 44.5953 133.958 44.5953C132.653 44.5953 132.08 44.0054 132.08 42.6607V36.0549H134.957V33.9198H132.08V30.6641H129.459Z" fill="white"/>
<path d="M142.379 46.9547C146.256 46.9547 148.633 44.4421 148.633 40.2781C148.633 36.1377 146.244 33.6133 142.379 33.6133C138.503 33.6133 136.113 36.1377 136.113 40.2781C136.113 44.4421 138.49 46.9547 142.379 46.9547ZM142.379 44.7016C140.099 44.7016 138.819 43.0855 138.819 40.2781C138.819 37.4942 140.099 35.8663 142.379 35.8663C144.647 35.8663 145.939 37.4942 145.939 40.2781C145.939 43.0737 144.647 44.7016 142.379 44.7016Z" fill="white"/>
<path d="M150.668 46.7067H153.289V39.1218C153.289 37.317 154.691 36.102 156.678 36.102C157.141 36.102 157.921 36.1846 158.14 36.2554V33.7546C157.86 33.6838 157.36 33.6484 156.97 33.6484C155.239 33.6484 153.764 34.5685 153.386 35.8307H153.191V33.8608H150.668V46.7067Z" fill="white"/>
<path d="M164.649 35.772C166.587 35.772 167.855 37.0813 167.916 39.0985H161.211C161.357 37.0931 162.71 35.772 164.649 35.772ZM167.904 43.2389C167.416 44.2416 166.331 44.796 164.746 44.796C162.649 44.796 161.296 43.3686 161.211 41.1156V40.9741H170.585V40.0893C170.585 36.0551 168.354 33.6133 164.661 33.6133C160.918 33.6133 158.541 36.2202 158.541 40.3252C158.541 44.4303 160.869 46.9547 164.673 46.9547C167.708 46.9547 169.83 45.5391 170.427 43.2389H167.904Z" fill="white"/>
<path d="M112.272 41.9624C112.474 45.1168 115.191 47.1341 119.234 47.1341C123.555 47.1341 126.259 45.019 126.259 41.6445C126.259 38.9914 124.718 37.5243 120.978 36.6807L118.969 36.2038C116.593 35.6659 115.633 34.9445 115.633 33.6852C115.633 32.0958 117.124 31.0566 119.36 31.0566C121.483 31.0566 122.949 32.0713 123.214 33.6974H125.968C125.804 30.7264 123.1 28.6357 119.398 28.6357C115.418 28.6357 112.765 30.7264 112.765 33.8686C112.765 36.4606 114.268 38.0011 117.566 38.7469L119.916 39.2971C122.329 39.8473 123.391 40.6542 123.391 41.9991C123.391 43.5641 121.723 44.7011 119.449 44.7011C117.01 44.7011 115.317 43.6374 115.077 41.9624H112.272Z" fill="white"/>
<path d="M85.1212 33.6484C83.317 33.6484 81.7566 34.5214 80.952 35.9841H80.757V33.8608H78.2335V50.9769H80.8544V44.7604H81.0617C81.7566 46.1169 83.256 46.919 85.1455 46.919C88.4979 46.919 90.6313 44.3593 90.6313 40.2779C90.6313 36.1964 88.4979 33.6484 85.1212 33.6484ZM84.3775 44.6424C82.1833 44.6424 80.8058 42.9674 80.8058 40.2896C80.8058 37.6001 82.1833 35.9251 84.3897 35.9251C86.6084 35.9251 87.9372 37.5647 87.9372 40.2779C87.9372 43.0028 86.6084 44.6424 84.3775 44.6424Z" fill="white"/>
<path d="M99.8023 33.6484C97.998 33.6484 96.4376 34.5214 95.6331 35.9841H95.438V33.8608H92.9146V50.9769H95.5355V44.7604H95.7427C96.4376 46.1169 97.937 46.919 99.8266 46.919C103.179 46.919 105.312 44.3593 105.312 40.2779C105.312 36.1964 103.179 33.6484 99.8023 33.6484ZM99.0586 44.6424C96.8643 44.6424 95.4868 42.9674 95.4868 40.2896C95.4868 37.6001 96.8643 35.9251 99.0708 35.9251C101.289 35.9251 102.618 37.5647 102.618 40.2779C102.618 43.0028 101.289 44.6424 99.0586 44.6424Z" fill="white"/>
<path d="M73.5309 46.706H76.5381L69.9552 29.0635H66.9101L60.3271 46.706H63.2332L64.9137 42.0234H71.8631L73.5309 46.706ZM68.2873 32.2668H68.5021L71.1429 39.7249H65.6339L68.2873 32.2668Z" fill="white"/>
<path d="M41.8997 22.4688C42.5462 21.7218 43.0392 20.8542 43.3503 19.9157C43.6614 18.9772 43.7845 17.9863 43.7125 17C41.7276 17.1606 39.885 18.0964 38.5819 19.6058C37.9578 20.3293 37.4849 21.1709 37.1911 22.0808C36.8974 22.9907 36.7887 23.9505 36.8716 24.9032C37.8399 24.9113 38.797 24.696 39.6689 24.2738C40.5407 23.8517 41.304 23.2341 41.8997 22.4688ZM46.2094 35.2237C46.2208 33.9101 46.566 32.621 47.2124 31.4782C47.8587 30.3354 48.7848 29.3765 49.9034 28.692C49.1975 27.6724 48.2643 26.8316 47.1778 26.2365C46.0913 25.6413 44.8814 25.3081 43.6441 25.2633C40.9761 24.989 38.5134 26.8233 37.094 26.8233C35.6745 26.8233 33.6736 25.2975 31.4503 25.3318C29.9968 25.3798 28.5806 25.8046 27.3397 26.5648C26.0988 27.3249 25.0757 28.3945 24.37 29.6692C21.3601 34.9151 23.6004 42.7155 26.6104 46.95C27.9786 49.0244 29.6888 51.3731 31.9462 51.2874C34.2037 51.2016 34.9391 49.8816 37.5557 49.8816C40.1723 49.8816 40.9761 51.2874 43.1994 51.2359C45.4227 51.1845 46.9961 49.1101 48.4326 47.0357C49.4503 45.5297 50.2452 43.884 50.7927 42.1498C49.4374 41.5704 48.281 40.6056 47.4664 39.3748C46.6519 38.1439 46.2149 36.7008 46.2094 35.2237Z" fill="white"/>
</svg>
