<svg width="142" height="58" viewBox="0 0 142 58" fill="none" xmlns="http://www.w3.org/2000/svg">
<rect x="0.0606689" y="0.475586" width="141.939" height="57.3641" rx="17.6505" fill="#8358A5"/>
<path d="M131.615 25.022L126.545 37.172H124.775L126.455 33.152L123.2 25.022H125.105L127.43 31.322L129.845 25.022H131.615Z" fill="white"/>
<path d="M113.439 29.1172C113.439 28.2872 113.609 27.5522 113.949 26.9122C114.299 26.2722 114.769 25.7772 115.359 25.4272C115.959 25.0672 116.619 24.8872 117.339 24.8872C117.989 24.8872 118.554 25.0172 119.034 25.2772C119.524 25.5272 119.914 25.8422 120.204 26.2222V25.0222H121.929V33.2872H120.204V32.0572C119.914 32.4472 119.519 32.7722 119.019 33.0322C118.519 33.2922 117.949 33.4222 117.309 33.4222C116.599 33.4222 115.949 33.2422 115.359 32.8822C114.769 32.5122 114.299 32.0022 113.949 31.3522C113.609 30.6922 113.439 29.9472 113.439 29.1172ZM120.204 29.1472C120.204 28.5772 120.084 28.0822 119.844 27.6622C119.614 27.2422 119.309 26.9222 118.929 26.7022C118.549 26.4822 118.139 26.3722 117.699 26.3722C117.259 26.3722 116.849 26.4822 116.469 26.7022C116.089 26.9122 115.779 27.2272 115.539 27.6472C115.309 28.0572 115.194 28.5472 115.194 29.1172C115.194 29.6872 115.309 30.1872 115.539 30.6172C115.779 31.0472 116.089 31.3772 116.469 31.6072C116.859 31.8272 117.269 31.9372 117.699 31.9372C118.139 31.9372 118.549 31.8272 118.929 31.6072C119.309 31.3872 119.614 31.0672 119.844 30.6472C120.084 30.2172 120.204 29.7172 120.204 29.1472Z" fill="white"/>
<path d="M111.764 22.187V33.287H110.054V22.187H111.764Z" fill="white"/>
<path d="M108.423 25.9668C108.423 26.4968 108.298 26.9968 108.048 27.4668C107.798 27.9368 107.398 28.3218 106.848 28.6218C106.298 28.9118 105.593 29.0568 104.733 29.0568H102.843V33.2868H101.133V22.8618H104.733C105.533 22.8618 106.208 23.0018 106.758 23.2818C107.318 23.5518 107.733 23.9218 108.003 24.3918C108.283 24.8618 108.423 25.3868 108.423 25.9668ZM104.733 27.6618C105.383 27.6618 105.868 27.5168 106.188 27.2268C106.508 26.9268 106.668 26.5068 106.668 25.9668C106.668 24.8268 106.023 24.2568 104.733 24.2568H102.843V27.6618H104.733Z" fill="white"/>
<path d="M95.5535 28.9522C95.5535 29.2622 95.5335 29.5422 95.4935 29.7922H89.1785C89.2285 30.4522 89.4735 30.9822 89.9135 31.3822C90.3535 31.7822 90.8935 31.9822 91.5335 31.9822C92.4535 31.9822 93.1035 31.5972 93.4835 30.8272H95.3285C95.0785 31.5872 94.6235 32.2122 93.9635 32.7022C93.3135 33.1822 92.5035 33.4222 91.5335 33.4222C90.7435 33.4222 90.0335 33.2472 89.4035 32.8972C88.7835 32.5372 88.2935 32.0372 87.9335 31.3972C87.5835 30.7472 87.4085 29.9972 87.4085 29.1472C87.4085 28.2972 87.5785 27.5522 87.9185 26.9122C88.2685 26.2622 88.7535 25.7622 89.3735 25.4122C90.0035 25.0622 90.7235 24.8872 91.5335 24.8872C92.3135 24.8872 93.0085 25.0572 93.6185 25.3972C94.2285 25.7372 94.7035 26.2172 95.0435 26.8372C95.3835 27.4472 95.5535 28.1522 95.5535 28.9522ZM93.7685 28.4122C93.7585 27.7822 93.5335 27.2772 93.0935 26.8972C92.6535 26.5172 92.1085 26.3272 91.4585 26.3272C90.8685 26.3272 90.3635 26.5172 89.9435 26.8972C89.5235 27.2672 89.2735 27.7722 89.1935 28.4122H93.7685Z" fill="white"/>
<path d="M85.7334 22.187V33.287H84.0234V22.187H85.7334Z" fill="white"/>
<path d="M77.1874 24.8872C77.8274 24.8872 78.3924 25.0172 78.8824 25.2772C79.3824 25.5272 79.7724 25.8422 80.0524 26.2222V25.0222H81.7774V33.4222C81.7774 34.1822 81.6174 34.8572 81.2974 35.4472C80.9774 36.0472 80.5124 36.5172 79.9024 36.8572C79.3024 37.1972 78.5824 37.3672 77.7424 37.3672C76.6224 37.3672 75.6924 37.1022 74.9524 36.5722C74.2124 36.0522 73.7924 35.3422 73.6924 34.4422H75.3874C75.5174 34.8722 75.7924 35.2172 76.2124 35.4772C76.6424 35.7472 77.1524 35.8822 77.7424 35.8822C78.4324 35.8822 78.9874 35.6722 79.4074 35.2522C79.8374 34.8322 80.0524 34.2222 80.0524 33.4222V32.0422C79.7624 32.4322 79.3674 32.7622 78.8674 33.0322C78.3774 33.2922 77.8174 33.4222 77.1874 33.4222C76.4674 33.4222 75.8074 33.2422 75.2074 32.8822C74.6174 32.5122 74.1474 32.0022 73.7974 31.3522C73.4574 30.6922 73.2874 29.9472 73.2874 29.1172C73.2874 28.2872 73.4574 27.5522 73.7974 26.9122C74.1474 26.2722 74.6174 25.7772 75.2074 25.4272C75.8074 25.0672 76.4674 24.8872 77.1874 24.8872ZM80.0524 29.1472C80.0524 28.5772 79.9324 28.0822 79.6924 27.6622C79.4624 27.2422 79.1574 26.9222 78.7774 26.7022C78.3974 26.4822 77.9874 26.3722 77.5474 26.3722C77.1074 26.3722 76.6974 26.4822 76.3174 26.7022C75.9374 26.9122 75.6274 27.2272 75.3874 27.6472C75.1574 28.0572 75.0424 28.5472 75.0424 29.1172C75.0424 29.6872 75.1574 30.1872 75.3874 30.6172C75.6274 31.0472 75.9374 31.3772 76.3174 31.6072C76.7074 31.8272 77.1174 31.9372 77.5474 31.9372C77.9874 31.9372 78.3974 31.8272 78.7774 31.6072C79.1574 31.3872 79.4624 31.0672 79.6924 30.6472C79.9324 30.2172 80.0524 29.7172 80.0524 29.1472Z" fill="white"/>
<path d="M67.877 33.4222C67.097 33.4222 66.392 33.2472 65.762 32.8972C65.132 32.5372 64.637 32.0372 64.277 31.3972C63.917 30.7472 63.737 29.9972 63.737 29.1472C63.737 28.3072 63.922 27.5622 64.292 26.9122C64.662 26.2622 65.167 25.7622 65.807 25.4122C66.447 25.0622 67.162 24.8872 67.952 24.8872C68.742 24.8872 69.457 25.0622 70.097 25.4122C70.737 25.7622 71.242 26.2622 71.612 26.9122C71.982 27.5622 72.167 28.3072 72.167 29.1472C72.167 29.9872 71.977 30.7322 71.597 31.3822C71.217 32.0322 70.697 32.5372 70.037 32.8972C69.387 33.2472 68.667 33.4222 67.877 33.4222ZM67.877 31.9372C68.317 31.9372 68.727 31.8322 69.107 31.6222C69.497 31.4122 69.812 31.0972 70.052 30.6772C70.292 30.2572 70.412 29.7472 70.412 29.1472C70.412 28.5472 70.297 28.0422 70.067 27.6322C69.837 27.2122 69.532 26.8972 69.152 26.6872C68.772 26.4772 68.362 26.3722 67.922 26.3722C67.482 26.3722 67.072 26.4772 66.692 26.6872C66.322 26.8972 66.027 27.2122 65.807 27.6322C65.587 28.0422 65.477 28.5472 65.477 29.1472C65.477 30.0372 65.702 30.7272 66.152 31.2172C66.612 31.6972 67.187 31.9372 67.877 31.9372Z" fill="white"/>
<path d="M58.3116 33.4222C57.5316 33.4222 56.8266 33.2472 56.1966 32.8972C55.5666 32.5372 55.0716 32.0372 54.7116 31.3972C54.3516 30.7472 54.1716 29.9972 54.1716 29.1472C54.1716 28.3072 54.3566 27.5622 54.7266 26.9122C55.0966 26.2622 55.6016 25.7622 56.2416 25.4122C56.8816 25.0622 57.5966 24.8872 58.3866 24.8872C59.1766 24.8872 59.8916 25.0622 60.5316 25.4122C61.1716 25.7622 61.6766 26.2622 62.0466 26.9122C62.4166 27.5622 62.6016 28.3072 62.6016 29.1472C62.6016 29.9872 62.4116 30.7322 62.0316 31.3822C61.6516 32.0322 61.1316 32.5372 60.4716 32.8972C59.8216 33.2472 59.1016 33.4222 58.3116 33.4222ZM58.3116 31.9372C58.7516 31.9372 59.1616 31.8322 59.5416 31.6222C59.9316 31.4122 60.2466 31.0972 60.4866 30.6772C60.7266 30.2572 60.8466 29.7472 60.8466 29.1472C60.8466 28.5472 60.7316 28.0422 60.5016 27.6322C60.2716 27.2122 59.9666 26.8972 59.5866 26.6872C59.2066 26.4772 58.7966 26.3722 58.3566 26.3722C57.9166 26.3722 57.5066 26.4772 57.1266 26.6872C56.7566 26.8972 56.4616 27.2122 56.2416 27.6322C56.0216 28.0422 55.9116 28.5472 55.9116 29.1472C55.9116 30.0372 56.1366 30.7272 56.5866 31.2172C57.0466 31.6972 57.6216 31.9372 58.3116 31.9372Z" fill="white"/>
<path d="M50.67 25.8621C50.4 25.3421 50.025 24.9521 49.545 24.6921C49.065 24.4221 48.51 24.2871 47.88 24.2871C47.19 24.2871 46.575 24.4421 46.035 24.7521C45.495 25.0621 45.07 25.5021 44.76 26.0721C44.46 26.6421 44.31 27.3021 44.31 28.0521C44.31 28.8021 44.46 29.4671 44.76 30.0471C45.07 30.6171 45.495 31.0571 46.035 31.3671C46.575 31.6771 47.19 31.8321 47.88 31.8321C48.81 31.8321 49.565 31.5721 50.145 31.0521C50.725 30.5321 51.08 29.8271 51.21 28.9371H47.295V27.5721H53.04V28.9071C52.93 29.7171 52.64 30.4621 52.17 31.1421C51.71 31.8221 51.105 32.3671 50.355 32.7771C49.615 33.1771 48.79 33.3771 47.88 33.3771C46.9 33.3771 46.005 33.1521 45.195 32.7021C44.385 32.2421 43.74 31.6071 43.26 30.7971C42.79 29.9871 42.555 29.0721 42.555 28.0521C42.555 27.0321 42.79 26.1171 43.26 25.3071C43.74 24.4971 44.385 23.8671 45.195 23.4171C46.015 22.9571 46.91 22.7271 47.88 22.7271C48.99 22.7271 49.975 23.0021 50.835 23.5521C51.705 24.0921 52.335 24.8621 52.725 25.8621H50.67Z" fill="white"/>
<path d="M31.2516 32.9064L28.3773 29.884L17.8259 41.0113L31.2516 32.9064ZM31.2516 24.6791L17.8259 16.5742L28.3773 27.7015L31.2516 24.6791ZM35.4587 30.3205C36.3192 29.602 36.3192 27.9825 35.4016 27.2639L32.5854 25.55L29.4434 28.7933L32.5854 32.0366L35.4587 30.3205ZM15.071 41.6602L27.3403 28.7879L15.071 15.921V15.9199C14.4502 16.2621 14.034 16.8852 14.034 17.6949V39.8852C14.034 40.695 14.4502 41.3181 15.071 41.6602Z" fill="white"/>
</svg>
