<svg width="20" height="19" viewBox="0 0 20 19" fill="none" xmlns="http://www.w3.org/2000/svg">
<mask id="mask0_711_1756" style="mask-type:luminance" maskUnits="userSpaceOnUse" x="2" y="2" width="17" height="16">
<path fill-rule="evenodd" clip-rule="evenodd" d="M2.39606 2.03223H18.7387V17.6032H2.39606V2.03223Z" fill="white"/>
</mask>
<g mask="url(#mask0_711_1756)">
<path fill-rule="evenodd" clip-rule="evenodd" d="M4.27676 4.3578C4.27835 4.3578 4.23849 4.3973 4.18827 4.44439C3.99534 4.62289 3.59594 4.99432 3.59195 5.77137C3.58557 6.85833 4.33575 8.87653 7.94794 12.3174C11.5434 15.7416 13.6584 16.4647 14.8016 16.4647H14.8183C15.6339 16.4609 16.0229 16.0796 16.2111 15.8965C16.2685 15.8403 16.3147 15.7993 16.3474 15.7735C17.1414 15.0124 17.548 14.4458 17.544 14.0827C17.5385 13.712 17.0545 13.2737 16.3857 12.6676C16.1728 12.4746 15.9416 12.265 15.6977 12.0326C15.0655 11.4317 14.7522 11.5343 14.0634 11.7652C13.1107 12.0835 11.8033 12.5164 9.77197 10.5803C7.73748 8.64334 8.19269 7.39915 8.52592 6.49145C8.76668 5.83518 8.8767 5.5359 8.24371 4.9328C7.99577 4.69733 7.77335 4.47401 7.56847 4.26893C6.93627 3.63544 6.48027 3.17741 6.09362 3.1721H6.08724C5.70537 3.1721 5.11224 3.561 4.27277 4.36084C4.27517 4.35856 4.27596 4.3578 4.27676 4.3578ZM14.8024 17.6037C12.8157 17.6037 10.2256 16.0967 7.10289 13.1229C3.96823 10.137 2.38417 7.66157 2.39612 5.76491C2.4033 4.51161 3.09289 3.86976 3.35199 3.62898C3.36554 3.61302 3.41178 3.56973 3.42772 3.55454C4.57093 2.46454 5.34184 2.02399 6.10876 2.03234C6.99925 2.04374 7.63304 2.67874 8.43504 3.48314C8.63354 3.68215 8.84879 3.89863 9.08875 4.1265C10.2527 5.23548 9.92105 6.14014 9.65478 6.8663C9.36459 7.65854 9.11347 8.34216 10.617 9.77472C12.1222 11.2073 12.8397 10.968 13.668 10.6892C14.4309 10.4356 15.378 10.118 16.5435 11.227C16.7795 11.4519 17.0035 11.6547 17.21 11.8423C18.0582 12.6102 18.7279 13.2171 18.7391 14.0679C18.7486 14.7932 18.2862 15.5323 17.1446 16.6208L16.6392 16.2942L17.0665 16.6922C16.8138 16.9391 16.1409 17.5969 14.8247 17.6037H14.8024Z" fill="white"/>
</g>
</svg>
