<svg width="15" height="16" viewBox="0 0 15 16" fill="none" xmlns="http://www.w3.org/2000/svg">
<path fill-rule="evenodd" clip-rule="evenodd" d="M7.50331 15.4474C5.9793 15.4474 4.56627 14.9888 3.37652 14.2143L0.501922 15.1252L1.43139 12.3556C0.532954 11.1413 0 9.61707 0 7.98759C0 7.74592 0.0185291 7.5167 0.0495427 7.27507C0.415133 3.50176 3.62465 0.552612 7.50331 0.552612C11.4437 0.552612 14.6842 3.58233 14.9876 7.41138C15 7.60959 15 7.80784 15 7.98757C15 12.0954 11.6361 15.4474 7.50329 15.4474L7.50331 15.4474ZM10.1055 8.99745C9.88825 8.9417 9.75229 8.89214 9.59734 9.12141C9.37411 9.47456 8.90331 10.249 8.44496 10.0198C8.2158 9.91449 7.51582 9.68519 6.67928 8.9417C6.02858 8.35928 5.58272 7.65918 5.46457 7.44853C5.27281 7.08915 5.87958 6.71121 6.10281 6.25892C6.17702 6.1102 6.14616 5.9863 6.08439 5.88096C6.04105 5.77564 5.60111 4.69759 5.4153 4.27007C5.23539 3.83013 5.04957 3.90453 4.93202 3.90453C3.71729 3.90453 3.14735 4.76576 3.14735 5.97387C3.14735 6.2155 3.19722 6.47579 3.27143 6.70501C3.48813 7.47951 3.97141 8.10526 4.0462 8.21059C4.15129 8.35924 5.55183 10.6146 7.77584 11.4821C10.0123 12.3494 10.0123 12.0582 10.4089 12.0272C10.7996 11.9963 11.6979 11.5129 11.8837 10.9925C12.0636 10.4907 12.0636 10.0507 12.0012 9.9578C11.927 9.82772 10.1055 9.00367 10.1055 8.99743V8.99745Z" fill="white"/>
</svg>
