<svg width="199" height="66" viewBox="0 0 199 66" fill="none" xmlns="http://www.w3.org/2000/svg">
<path d="M109.271 30.3163H109.135L95.9889 1.36461C95.6343 0.5728 94.849 0.0505413 93.9878 0.0336942C92.5608 1.31796e-07 91.1508 -0.00842358 89.7576 0.00842348C88.871 0.016847 88.0689 0.530683 87.7058 1.33092L74.4242 30.1815H74.2891L66.462 4.41393C66.1158 3.28518 64.9675 2.61129 63.8107 2.85558C61.151 3.41153 58.7784 3.99275 56.7604 4.54028C55.5107 4.87722 54.8015 6.18287 55.1899 7.41271L69.6283 53.043C69.9069 53.86 70.861 54.416 71.9587 54.416H72.6426C73.7403 54.416 74.5677 53.8685 74.8379 53.1862L91.5814 16.6365H91.7165L108.595 53.1862C108.874 53.8685 109.828 54.416 110.925 54.416H111.474C112.707 54.416 113.67 53.8685 113.948 53.043L127.88 8.24664C128.252 7.05892 127.593 5.79539 126.411 5.41633C124.114 4.67506 121.826 4.01802 119.563 3.44522C118.381 3.1504 117.174 3.83271 116.827 5.00358L109.279 30.3247L109.271 30.3163Z" fill="white"/>
<path d="M28.0421 8.22949C43.4092 8.22949 55.7621 21.3702 55.7621 36.8358C55.7621 52.3014 43.4092 65.7201 28.0421 65.7201C12.6749 65.7201 0.322021 52.5794 0.322021 36.8358C0.322021 21.0922 12.6749 8.22949 28.0421 8.22949ZM28.0421 53.9524C36.6882 53.9524 43.5443 46.287 43.5443 36.8442C43.5443 27.4014 36.6798 20.1404 28.0421 20.1404C19.4043 20.1404 12.5398 27.671 12.5398 36.8442C12.5398 46.0174 19.4043 53.9524 28.0421 53.9524Z" fill="white"/>
<path d="M155.345 8.22949C170.712 8.22949 183.065 21.3702 183.065 36.8358C183.065 52.3014 170.712 65.7201 155.345 65.7201C139.978 65.7201 127.625 52.5794 127.625 36.8358C127.625 21.0922 139.978 8.22949 155.345 8.22949ZM155.345 53.9524C163.991 53.9524 170.847 46.287 170.847 36.8442C170.847 27.4014 163.983 20.1404 155.345 20.1404C146.707 20.1404 139.843 27.671 139.843 36.8442C139.843 46.0174 146.707 53.9524 155.345 53.9524Z" fill="white"/>
<path d="M192.056 11.0967C195.797 11.0967 198.862 14.0479 198.862 17.6494C198.862 21.251 195.797 24.1859 192.056 24.1859C188.316 24.1859 185.276 21.2592 185.276 17.6494C185.276 14.0397 188.316 11.0967 192.056 11.0967ZM192.056 22.9258C195.096 22.9258 197.536 20.56 197.536 17.6494C197.536 14.7389 195.096 12.3731 192.056 12.3731C189.017 12.3731 186.576 14.7227 186.576 17.6494C186.576 20.5762 189.033 22.9258 192.056 22.9258ZM189.616 14.6495C189.616 14.4706 189.768 14.2999 189.979 14.2999H192.774C193.948 14.2999 195.096 15.0641 195.096 16.4462C195.096 17.7389 194.226 18.2511 193.661 18.4462C193.998 19.121 194.344 19.812 194.665 20.4624C194.8 20.6982 194.606 20.9502 194.344 20.9502H193.492C193.34 20.9502 193.205 20.8201 193.154 20.6982L192.208 18.5519H191.035V20.6088C191.035 20.7876 190.883 20.9583 190.672 20.9583H189.971C189.76 20.9583 189.608 20.7957 189.608 20.6088V14.6414L189.616 14.6495ZM192.681 17.3568C193.247 17.3568 193.627 16.9584 193.627 16.4625C193.627 15.934 193.247 15.5682 192.681 15.5682H191.001V17.3486H192.681V17.3568Z" fill="white"/>
</svg>
