<svg width="19" height="20" viewBox="0 0 19 20" fill="none" xmlns="http://www.w3.org/2000/svg">
<path fill-rule="evenodd" clip-rule="evenodd" d="M12.791 10.75H0.75C0.336 10.75 0 10.414 0 10C0 9.586 0.336 9.25 0.75 9.25H12.791C13.205 9.25 13.541 9.586 13.541 10C13.541 10.414 13.205 10.75 12.791 10.75Z" fill="black"/>
<path fill-rule="evenodd" clip-rule="evenodd" d="M9.86352 13.6647C9.67152 13.6647 9.47852 13.5917 9.33252 13.4437C9.03952 13.1497 9.04152 12.6757 9.33452 12.3837L11.7285 9.99974L9.33452 7.61474C9.04152 7.32274 9.03952 6.84874 9.33252 6.55474C9.62552 6.26074 10.0995 6.26074 10.3925 6.55274L13.3215 9.46873C13.4635 9.60874 13.5425 9.80073 13.5425 9.99974C13.5425 10.1987 13.4635 10.3907 13.3215 10.5307L10.3925 13.4457C10.2465 13.5917 10.0545 13.6647 9.86352 13.6647Z" fill="black"/>
<path fill-rule="evenodd" clip-rule="evenodd" d="M14.042 20H9.15703C6.71803 20 4.73303 18.015 4.73303 15.575V14.633C4.73303 14.219 5.06903 13.883 5.48303 13.883C5.89703 13.883 6.23303 14.219 6.23303 14.633V15.575C6.23303 17.187 7.54503 18.5 9.15703 18.5H14.042C15.661 18.5 16.978 17.184 16.978 15.564V4.425C16.978 2.813 15.665 1.5 14.053 1.5H9.16803C7.55003 1.5 6.23303 2.816 6.23303 4.434V5.367C6.23303 5.781 5.89703 6.117 5.48303 6.117C5.06903 6.117 4.73303 5.781 4.73303 5.367V4.434C4.73303 1.989 6.72303 0 9.16803 0H14.053C16.492 0 18.478 1.985 18.478 4.425V15.564C18.478 18.01 16.487 20 14.042 20Z" fill="black"/>
</svg>
