<svg width="20" height="20" viewBox="0 0 20 20" fill="none" xmlns="http://www.w3.org/2000/svg">
<path fill-rule="evenodd" clip-rule="evenodd" d="M9.38937 11.2164C8.85604 11.2164 8.32429 11.0485 7.87945 10.7128L4.30393 7.96612C4.04643 7.76863 4.00657 7.40935 4.21305 7.16476C4.42112 6.92094 4.79741 6.8822 5.05411 7.07893L8.62644 9.82253C9.07527 10.1613 9.70746 10.1613 10.1595 9.81949L13.6959 7.08045C13.9526 6.88068 14.3289 6.91866 14.5378 7.16325C14.7459 7.40707 14.7068 7.76559 14.4509 7.9646L10.9081 10.7082C10.46 11.047 9.92431 11.2164 9.38937 11.2164Z" fill="white"/>
<mask id="mask0_711_1753" style="mask-type:luminance" maskUnits="userSpaceOnUse" x="0" y="2" width="18" height="16">
<path fill-rule="evenodd" clip-rule="evenodd" d="M0.797974 2.50684H17.938V17.3186H0.797974V2.50684Z" fill="white"/>
</mask>
<g mask="url(#mask0_711_1753)">
<path fill-rule="evenodd" clip-rule="evenodd" d="M5.45283 16.1797H13.2815C13.2831 16.1782 13.2895 16.1797 13.2942 16.1797C14.2039 16.1797 15.0107 15.8698 15.6293 15.2812C16.3476 14.5998 16.7422 13.6207 16.7422 12.5247V7.30787C16.7422 5.18637 15.2865 3.64671 13.2815 3.64671H5.45442C3.44942 3.64671 1.99371 5.18637 1.99371 7.30787V12.5247C1.99371 13.6207 2.38913 14.5998 3.10662 15.2812C3.72526 15.8698 4.53284 16.1797 5.44167 16.1797H5.45283ZM5.4393 17.3186C4.2092 17.3186 3.11064 16.8932 2.2624 16.0881C1.3177 15.1903 0.797913 13.9248 0.797913 12.5241V7.30737C0.797913 4.57061 2.79972 2.50684 5.45445 2.50684H13.2815C15.9362 2.50684 17.9381 4.57061 17.9381 7.30737V12.5241C17.9381 13.9248 17.4183 15.1903 16.4736 16.0881C15.6261 16.8925 14.5268 17.3186 13.2943 17.3186H13.2815H5.45445H5.4393Z" fill="white"/>
</g>
</svg>
