<svg width="27" height="32" viewBox="0 0 27 32" fill="none" xmlns="http://www.w3.org/2000/svg">
<path d="M18.4701 5.25396C19.0687 4.56407 19.5251 3.76273 19.8131 2.89596C20.1011 2.02919 20.2151 1.11406 20.1484 0.203125C18.3108 0.351463 16.6049 1.21576 15.3984 2.60979C14.8207 3.27792 14.3829 4.05518 14.1109 4.89556C13.8389 5.73594 13.7383 6.62234 13.8151 7.50229C14.7115 7.50976 15.5976 7.31086 16.4048 6.92098C17.212 6.53111 17.9187 5.96072 18.4701 5.25396ZM22.4601 17.034C22.4707 15.8207 22.7903 14.6302 23.3887 13.5747C23.9871 12.5192 24.8445 11.6336 25.8801 11.0015C25.2265 10.0598 24.3626 9.28328 23.3567 8.73361C22.3508 8.18394 21.2306 7.8762 20.0851 7.83479C17.6151 7.58146 15.3351 9.27563 14.0209 9.27563C12.7068 9.27563 10.8543 7.86646 8.79594 7.89813C7.45031 7.94245 6.13914 8.33478 4.99031 9.03684C3.84149 9.7389 2.89423 10.7267 2.24094 11.904C-0.545727 16.749 1.52844 23.9531 4.31511 27.864C5.58177 29.7798 7.16511 31.949 9.25511 31.8698C11.3451 31.7906 12.0259 30.5715 14.4484 30.5715C16.8709 30.5715 17.6151 31.8698 19.6734 31.8223C21.7318 31.7748 23.1884 29.859 24.5184 27.9431C25.4606 26.5522 26.1966 25.0323 26.7034 23.4306C25.4486 22.8955 24.378 22.0045 23.6239 20.8677C22.8698 19.7309 22.4652 18.3981 22.4601 17.034Z" fill="white"/>
</svg>
